<svg width="30" height="30" viewBox="0 0 30 30" fill="none" xmlns="http://www.w3.org/2000/svg">
<path d="M13.9851 7.72548C13.91 7.64199 13.8513 7.54378 13.8123 7.43645C13.7734 7.32913 13.7549 7.21479 13.758 7.09997C13.7611 6.98515 13.7857 6.87209 13.8304 6.76725C13.875 6.66241 13.939 6.56785 14.0184 6.48895C14.0979 6.41006 14.1914 6.34838 14.2936 6.30744C14.3958 6.2665 14.5046 6.2471 14.614 6.25035C14.7233 6.2536 14.8309 6.27943 14.9307 6.32637C15.0305 6.37331 15.1206 6.44044 15.1957 6.52393L22.2724 14.3943C22.4186 14.5567 22.5 14.7716 22.5 14.9951C22.5 15.2185 22.4186 15.4335 22.2724 15.5959L15.1957 23.4671C15.1211 23.5524 15.0311 23.6213 14.9309 23.6698C14.8307 23.7183 14.7223 23.7453 14.6121 23.7494C14.5019 23.7536 14.392 23.7346 14.2888 23.6938C14.1856 23.6529 14.0911 23.5909 14.011 23.5113C13.9308 23.4318 13.8664 23.3363 13.8217 23.2304C13.7769 23.1245 13.7526 23.0104 13.7502 22.8946C13.7478 22.7787 13.7673 22.6636 13.8077 22.5557C13.848 22.4479 13.9083 22.3496 13.9851 22.2664L20.5224 14.9951L13.9851 7.72548Z" fill="#333D51"/>
<path d="M8.98514 7.72548C8.91003 7.64199 8.85131 7.54378 8.81233 7.43645C8.77336 7.32913 8.75489 7.21479 8.75798 7.09997C8.76107 6.98515 8.78566 6.87209 8.83036 6.76725C8.87505 6.66241 8.93896 6.56785 9.01844 6.48895C9.09793 6.41006 9.19143 6.34838 9.29361 6.30744C9.39579 6.2665 9.50464 6.2471 9.61396 6.25035C9.72328 6.2536 9.83091 6.27943 9.93073 6.32637C10.0305 6.37331 10.1206 6.44044 10.1957 6.52393L17.2724 14.3943C17.4186 14.5567 17.5 14.7716 17.5 14.9951C17.5 15.2185 17.4186 15.4335 17.2724 15.5959L10.1957 23.4671C10.1211 23.5524 10.0311 23.6213 9.93087 23.6698C9.8307 23.7183 9.72235 23.7453 9.61212 23.7494C9.50189 23.7536 9.39199 23.7346 9.28879 23.6938C9.18559 23.6529 9.09115 23.5909 9.01095 23.5113C8.93076 23.4318 8.86641 23.3363 8.82165 23.2304C8.77689 23.1245 8.7526 23.0104 8.7502 22.8946C8.7478 22.7787 8.76733 22.6636 8.80766 22.5557C8.84799 22.4479 8.90832 22.3496 8.98514 22.2664L15.5224 14.9951L8.98514 7.72548Z" fill="#333D51"/>
<rect x="0.5" y="0.5" width="29" height="29" rx="7.5" stroke="#333D51"/>
</svg>
