<svg width="30" height="30" viewBox="0 0 30 30" fill="none" xmlns="http://www.w3.org/2000/svg">
<path d="M16.0149 22.2745C16.09 22.358 16.1487 22.4562 16.1877 22.5635C16.2266 22.6709 16.2451 22.7852 16.242 22.9C16.2389 23.0149 16.2143 23.1279 16.1696 23.2327C16.125 23.3376 16.061 23.4322 15.9816 23.511C15.9021 23.5899 15.8086 23.6516 15.7064 23.6926C15.6042 23.7335 15.4954 23.7529 15.386 23.7497C15.2767 23.7464 15.1691 23.7206 15.0693 23.6736C14.9695 23.6267 14.8794 23.5596 14.8043 23.4761L7.72757 15.6057C7.58143 15.4433 7.5 15.2284 7.5 15.0049C7.5 14.7815 7.58143 14.5665 7.72757 14.4041L14.8043 6.53289C14.8789 6.44757 14.9689 6.37868 15.0691 6.33021C15.1693 6.28174 15.2777 6.25467 15.3879 6.25055C15.4981 6.24644 15.608 6.26537 15.7112 6.30625C15.8144 6.34713 15.9089 6.40914 15.989 6.48868C16.0692 6.56821 16.1336 6.6637 16.1783 6.76958C16.2231 6.87546 16.2474 6.98962 16.2498 7.10545C16.2522 7.22127 16.2327 7.33644 16.1923 7.44427C16.152 7.55209 16.0917 7.65043 16.0149 7.73356L9.47761 15.0049L16.0149 22.2745Z" fill="#6178A5"/>
<path d="M21.0149 22.2745C21.09 22.358 21.1487 22.4562 21.1877 22.5635C21.2266 22.6709 21.2451 22.7852 21.242 22.9C21.2389 23.0149 21.2143 23.1279 21.1696 23.2327C21.125 23.3376 21.061 23.4322 20.9816 23.511C20.9021 23.5899 20.8086 23.6516 20.7064 23.6926C20.6042 23.7335 20.4954 23.7529 20.386 23.7497C20.2767 23.7464 20.1691 23.7206 20.0693 23.6736C19.9695 23.6267 19.8794 23.5596 19.8043 23.4761L12.7276 15.6057C12.5814 15.4433 12.5 15.2284 12.5 15.0049C12.5 14.7815 12.5814 14.5665 12.7276 14.4041L19.8043 6.53289C19.8789 6.44757 19.9689 6.37868 20.0691 6.33021C20.1693 6.28174 20.2777 6.25467 20.3879 6.25055C20.4981 6.24644 20.608 6.26537 20.7112 6.30625C20.8144 6.34713 20.9089 6.40914 20.989 6.48868C21.0692 6.56821 21.1336 6.6637 21.1783 6.76958C21.2231 6.87546 21.2474 6.98962 21.2498 7.10545C21.2522 7.22127 21.2327 7.33644 21.1923 7.44427C21.152 7.55209 21.0917 7.65043 21.0149 7.73356L14.4776 15.0049L21.0149 22.2745Z" fill="#6178A5"/>
<rect x="29.5" y="29.5" width="29" height="29" rx="7.5" transform="rotate(180 29.5 29.5)" stroke="#6178A5"/>
</svg>
