<svg width="30" height="30" viewBox="0 0 30 30" fill="none" xmlns="http://www.w3.org/2000/svg">
<path d="M18.5149 22.2745C18.59 22.358 18.6487 22.4562 18.6877 22.5635C18.7266 22.6709 18.7451 22.7852 18.742 22.9C18.7389 23.0149 18.7143 23.1279 18.6696 23.2327C18.625 23.3376 18.561 23.4322 18.4816 23.511C18.4021 23.5899 18.3086 23.6516 18.2064 23.6926C18.1042 23.7335 17.9954 23.7529 17.886 23.7497C17.7767 23.7464 17.6691 23.7206 17.5693 23.6736C17.4695 23.6267 17.3794 23.5596 17.3043 23.4761L10.2276 15.6057C10.0814 15.4433 10 15.2284 10 15.0049C10 14.7815 10.0814 14.5665 10.2276 14.4041L17.3043 6.53289C17.3789 6.44757 17.4689 6.37868 17.5691 6.33021C17.6693 6.28174 17.7777 6.25467 17.8879 6.25055C17.9981 6.24644 18.108 6.26537 18.2112 6.30625C18.3144 6.34713 18.4089 6.40914 18.489 6.48868C18.5692 6.56821 18.6336 6.6637 18.6783 6.76958C18.7231 6.87546 18.7474 6.98962 18.7498 7.10545C18.7522 7.22127 18.7327 7.33644 18.6923 7.44427C18.652 7.55209 18.5917 7.65043 18.5149 7.73356L11.9776 15.0049L18.5149 22.2745Z" fill="#333D51"/>
<rect x="29.5" y="29.5" width="29" height="29" rx="7.5" transform="rotate(-180 29.5 29.5)" stroke="#333D51"/>
</svg>
