<svg width="30" height="30" viewBox="0 0 30 30" fill="none" xmlns="http://www.w3.org/2000/svg">
<path d="M11.4851 7.72548C11.41 7.64199 11.3513 7.54378 11.3123 7.43645C11.2734 7.32913 11.2549 7.21479 11.258 7.09997C11.2611 6.98515 11.2857 6.87209 11.3304 6.76725C11.375 6.66241 11.439 6.56785 11.5184 6.48895C11.5979 6.41006 11.6914 6.34838 11.7936 6.30744C11.8958 6.2665 12.0046 6.2471 12.114 6.25035C12.2233 6.2536 12.3309 6.27943 12.4307 6.32637C12.5305 6.37331 12.6206 6.44044 12.6957 6.52393L19.7724 14.3943C19.9186 14.5567 20 14.7716 20 14.9951C20 15.2185 19.9186 15.4335 19.7724 15.5959L12.6957 23.4671C12.6211 23.5524 12.5311 23.6213 12.4309 23.6698C12.3307 23.7183 12.2223 23.7453 12.1121 23.7494C12.0019 23.7536 11.892 23.7346 11.7888 23.6938C11.6856 23.6529 11.5911 23.5909 11.511 23.5113C11.4308 23.4318 11.3664 23.3363 11.3217 23.2304C11.2769 23.1245 11.2526 23.0104 11.2502 22.8946C11.2478 22.7787 11.2673 22.6636 11.3077 22.5557C11.348 22.4479 11.4083 22.3496 11.4851 22.2664L18.0224 14.9951L11.4851 7.72548Z" fill="#6178A5"/>
<rect x="0.5" y="0.5" width="29" height="29" rx="7.5" stroke="#6178A5"/>
</svg>
